<?xml version="1.0" encoding="utf-8"?>
<!-- Generator: Adobe Illustrator 24.0.2, SVG Export Plug-In . SVG Version: 6.00 Build 0)  -->
<svg version="1.1" id="Слой_1" xmlns="http://www.w3.org/2000/svg" xmlns:xlink="http://www.w3.org/1999/xlink" x="0px" y="0px"
	 viewBox="0 0 800 800" style="enable-background:new 0 0 800 800;" xml:space="preserve">
<style type="text/css">
	.st0{fill:#FFFFFF;}
	.st1{fill:url(#SVGID_1_);}
</style>
<path class="st0" d="M451.7,271.83c44.85-29.08,112.21-19.57,164.22-5.16c21.6,3.48,41.09,10.3,57.2,19.27c0,0-2.6-4.19-7.66-10.73
	c-22.06-28.49-103.54-82.47-196.92-67.4c-70.5,11.38-95.77,41.09-98.17,74.49c-8.07-38.66,5.25-77.07,69.34-95.95
	c-145.54,29.95-82.24,143.03-36.88,190.54c60,62.85,134.52,112.29-34.05,174.81c-37,13.72-71.67,24.06-101.58,31.77
	c33.79-8.03,74.75-15.07,119.83-31.79c63.12-23.41,92.25-45.64,100.84-67.59c-0.55,24.34-25.94,48.9-99.07,76.02
	c-108.63,40.29-196.3,50.16-196.3,50.16s0.99,0.12,2.81,0.3c29.28,3.04,282.23,25.65,347.07-92.19
	C605.97,402.78,363.64,328.92,451.7,271.83L451.7,271.83z"/>
<linearGradient id="SVGID_1_" gradientUnits="userSpaceOnUse" x1="168.079" y1="365.2748" x2="240.8616" y2="601.6226">
	<stop  offset="0" style="stop-color:#ED1C24"/>
	<stop  offset="0.2292" style="stop-color:#EA1C23"/>
	<stop  offset="0.4307" style="stop-color:#DF1B1E"/>
	<stop  offset="0.6219" style="stop-color:#CD1A18"/>
	<stop  offset="0.8066" style="stop-color:#B3180E"/>
	<stop  offset="0.9853" style="stop-color:#931501"/>
	<stop  offset="1" style="stop-color:#901500"/>
</linearGradient>
<path class="st1" d="M198.18,392.98c-38.79,0-70.34,31.55-70.34,70.34c0,48.75,70.41,132.02,70.41,132.02s70.27-85.67,70.27-132.02
	C268.52,424.54,236.97,392.98,198.18,392.98z M197.45,509.42c-21.8,0-39.48-17.68-39.48-39.48c0-21.8,17.68-39.48,39.48-39.48
	s39.48,17.68,39.48,39.48C236.93,491.75,219.26,509.42,197.45,509.42z"/>
<g>
</g>
<g>
</g>
<g>
</g>
<g>
</g>
<g>
</g>
<g>
</g>
<g>
</g>
<g>
</g>
<g>
</g>
<g>
</g>
<g>
</g>
<g>
</g>
<g>
</g>
<g>
</g>
<g>
</g>
</svg>
